<?xml version="1.0" encoding="UTF-8" standalone="no"?>
<!-- Created with Inkscape (http://www.inkscape.org/) -->

<svg
   width="512"
   height="512"
   viewBox="0 0 512 512"
   version="1.1"
   id="svg1"
   xml:space="preserve"
   inkscape:version="1.4 (86a8ad7, 2024-10-11)"
   sodipodi:docname="bgm-rec-star.svg"
   xmlns:inkscape="http://www.inkscape.org/namespaces/inkscape"
   xmlns:sodipodi="http://sodipodi.sourceforge.net/DTD/sodipodi-0.dtd"
   xmlns="http://www.w3.org/2000/svg"
   xmlns:svg="http://www.w3.org/2000/svg"><sodipodi:namedview
     id="namedview1"
     pagecolor="#ffffff"
     bordercolor="#000000"
     borderopacity="0.25"
     inkscape:showpageshadow="2"
     inkscape:pageopacity="0.0"
     inkscape:pagecheckerboard="0"
     inkscape:deskcolor="#d1d1d1"
     inkscape:document-units="px"
     inkscape:zoom="2"
     inkscape:cx="114"
     inkscape:cy="261.75"
     inkscape:window-width="2560"
     inkscape:window-height="1361"
     inkscape:window-x="-9"
     inkscape:window-y="-9"
     inkscape:window-maximized="1"
     inkscape:current-layer="layer1" /><defs
     id="defs1" /><g
     inkscape:label="图层 1"
     inkscape:groupmode="layer"
     id="layer1"><path
       id="rect2"
       style="display:inline;fill:#81a1c1;stroke-width:26.7143;fill-opacity:1"
       d="m 122.65541,17.984445 a 6.441539,6.441539 0 0 0 -6.44311,6.44085 6.441539,6.441539 0 0 0 1.79352,4.437533 l -0.0113,0.009 120.88271,126.669312 a 53.905869,39.204265 2.3840776e-7 0 0 -21.79287,19.3 H 73.429674 c -27.601442,0 -49.821278,22.21985 -49.821277,49.82128 l 4e-6,200.92296 c -6e-6,27.60145 22.219837,49.82128 49.821279,49.82128 h 363.86408 c 27.60144,0 49.82129,-22.21983 49.82129,-49.82128 l -10e-6,-200.92296 c 10e-6,-27.60145 -22.21984,-49.82128 -49.82128,-49.82128 H 317.81204 a 53.905869,39.204265 2.3840776e-7 0 0 -14.3774,-15.27305 l 91.50747,-133.739585 -0.002,-0.0022 a 5.07899,5.07899 0 0 0 0.79184,-2.718468 5.07899,5.07899 0 0 0 -5.08049,-5.078231 5.07899,5.07899 0 0 0 -4.28186,2.348481 l -0.0497,-0.03158 -91.97896,134.429913 a 53.905869,39.204265 2.3840776e-7 0 0 -26.93201,-5.25421 53.905869,39.204265 2.3840776e-7 0 0 -14.95269,1.58146 L 127.3208,19.974223 l -0.007,0.0068 a 6.441539,6.441539 0 0 0 -4.65862,-1.996552 z M 108.9593,197.71013 h 312.81555 c 22.17165,-1e-5 40.02125,17.84961 40.02125,40.02125 v 154.77445 c 10e-6,22.17164 -17.84961,40.02126 -40.02125,40.02125 H 108.9593 c -22.171647,0 -40.02126,-17.84961 -40.021264,-40.02125 l 4e-6,-154.77445 c -4e-6,-22.17164 17.849616,-40.02125 40.02126,-40.02125 z" /><path
       id="path7"
       style="fill:#81a1c1;stroke-width:30;fill-opacity:1"
       inkscape:transform-center-x="0.16680694"
       inkscape:transform-center-y="-10.13817"
       d="m 265.67614,215.01356 -31.36954,64.37017 -70.811,10.65052 51.5268,49.72653 -11.75144,70.63505 63.21508,-33.63682 63.54672,33.00288 -12.45758,-70.51548 51.02599,-50.23863 -70.9148,-9.94215 z m 0.22335,44.52197 18.79238,37.6051 41.6343,5.83849 -29.95728,29.49481 7.31391,41.39968 -37.30955,-19.3767 -37.11329,19.74893 6.90106,-41.4696 -30.25281,-29.19476 41.57337,-6.25361 z" /></g></svg>
